<svg xmlns="http://www.w3.org/2000/svg" xmlns:xlink="http://www.w3.org/1999/xlink" width="500" zoomAndPan="magnify" viewBox="0 0 375 374.999991" height="500" preserveAspectRatio="xMidYMid meet" version="1.2"><defs><clipPath id="9e233d30d4"><path d="M 1.691406 1.691406 L 375 1.691406 L 375 375 L 1.691406 375 Z M 1.691406 1.691406 "/></clipPath><clipPath id="7a8f8ac16d"><path d="M 188.347656 1.691406 C 85.257812 1.691406 1.691406 85.257812 1.691406 188.347656 C 1.691406 291.433594 85.257812 375 188.347656 375 C 291.433594 375 375 291.433594 375 188.347656 C 375 85.257812 291.433594 1.691406 188.347656 1.691406 Z M 188.347656 1.691406 "/></clipPath></defs><g id="c6c933b2b5"><g clip-rule="nonzero" clip-path="url(#9e233d30d4)"><g clip-rule="nonzero" clip-path="url(#7a8f8ac16d)"><path style=" stroke:none;fill-rule:nonzero;fill:#000000;fill-opacity:1;" d="M 1.691406 1.691406 L 375 1.691406 L 375 375 L 1.691406 375 Z M 1.691406 1.691406 "/></g></g><g style="fill:#ffffff;fill-opacity:1;"><g transform="translate(57.371259, 268.595841)"><path style="stroke:none" d="M 76.296875 -147.75 C 86.878906 -147.75 95.925781 -145.8125 103.4375 -141.9375 C 110.945312 -138.0625 116.617188 -132.632812 120.453125 -125.65625 C 124.296875 -118.6875 126.21875 -110.585938 126.21875 -101.359375 C 126.21875 -92.128906 124.296875 -84.046875 120.453125 -77.109375 C 116.617188 -70.171875 110.945312 -64.765625 103.4375 -60.890625 C 95.925781 -57.015625 86.878906 -55.078125 76.296875 -55.078125 L 48.40625 -55.078125 L 48.40625 0 L 19.203125 0 L 19.203125 -147.75 Z M 72.453125 -78.21875 C 88.691406 -78.21875 96.8125 -85.929688 96.8125 -101.359375 C 96.8125 -116.859375 88.691406 -124.609375 72.453125 -124.609375 L 48.40625 -124.609375 L 48.40625 -78.21875 Z M 72.453125 -78.21875 "/></g><g transform="translate(192.386831, 268.595841)"><path style="stroke:none" d="M 65.484375 2.125 C 55.242188 2.125 46.128906 0.863281 38.140625 -1.65625 C 30.160156 -4.1875 23.507812 -7.503906 18.1875 -11.609375 C 12.863281 -15.722656 8.789062 -20.238281 5.96875 -25.15625 L 22.03125 -44.765625 L 24.5625 -44.765625 C 29.007812 -38.160156 34.648438 -32.90625 41.484375 -29 C 48.328125 -25.09375 56.328125 -23.140625 65.484375 -23.140625 C 73.296875 -23.140625 79.191406 -24.789062 83.171875 -28.09375 C 87.148438 -31.394531 89.140625 -35.941406 89.140625 -41.734375 C 89.140625 -45.242188 88.5 -48.175781 87.21875 -50.53125 C 85.9375 -52.882812 83.8125 -54.90625 80.84375 -56.59375 C 77.882812 -58.28125 73.878906 -59.726562 68.828125 -60.9375 L 49.828125 -65.28125 C 36.546875 -68.3125 26.65625 -73.347656 20.15625 -80.390625 C 13.65625 -87.429688 10.40625 -96.578125 10.40625 -107.828125 C 10.40625 -116.179688 12.492188 -123.523438 16.671875 -129.859375 C 20.847656 -136.191406 26.925781 -141.109375 34.90625 -144.609375 C 42.894531 -148.117188 52.445312 -149.875 63.5625 -149.875 C 74.945312 -149.875 84.695312 -148.375 92.8125 -145.375 C 100.9375 -142.375 107.796875 -137.773438 113.390625 -131.578125 L 98.9375 -111.765625 L 96.40625 -111.765625 C 92.226562 -116.148438 87.441406 -119.4375 82.046875 -121.625 C 76.660156 -123.8125 70.5 -124.90625 63.5625 -124.90625 C 55.550781 -124.90625 49.457031 -123.488281 45.28125 -120.65625 C 41.101562 -117.832031 39.015625 -113.925781 39.015625 -108.9375 C 39.015625 -104.289062 40.476562 -100.585938 43.40625 -97.828125 C 46.332031 -95.066406 51.398438 -92.910156 58.609375 -91.359375 L 78.015625 -87.3125 C 92.367188 -84.28125 102.78125 -79.144531 109.25 -71.90625 C 115.71875 -64.664062 118.953125 -55.21875 118.953125 -43.5625 C 118.953125 -34.332031 116.960938 -26.296875 112.984375 -19.453125 C 109.003906 -12.617188 103.003906 -7.3125 94.984375 -3.53125 C 86.972656 0.238281 77.140625 2.125 65.484375 2.125 Z M 65.484375 2.125 "/></g></g></g></svg>